<svg xmlns="http://www.w3.org/2000/svg" width="25" height="15.629" viewBox="0 0 25 15.629">
  <path id="Icon_simple-behance" data-name="Icon simple-behance" d="M7.23,6.754a9.293,9.293,0,0,1,2,.2,4.5,4.5,0,0,1,1.547.636,2.929,2.929,0,0,1,1,1.167,4.164,4.164,0,0,1,.354,1.8,3.391,3.391,0,0,1-.528,1.938,3.817,3.817,0,0,1-1.565,1.271,3.672,3.672,0,0,1,2.107,1.428,4.277,4.277,0,0,1,.693,2.459,4.308,4.308,0,0,1-.427,2.011A3.856,3.856,0,0,1,11.2,21.07a5.3,5.3,0,0,1-1.74.8,7.623,7.623,0,0,1-1.99.265H0V6.762H7.23ZM17.653,19.428a2.719,2.719,0,0,0,1.974.67,2.721,2.721,0,0,0,1.594-.466,1.918,1.918,0,0,0,.813-.98h2.7a5.073,5.073,0,0,1-1.98,2.866,5.716,5.716,0,0,1-3.21.865,6.387,6.387,0,0,1-2.368-.417,5.156,5.156,0,0,1-1.792-1.188,5.315,5.315,0,0,1-1.122-1.844,6.837,6.837,0,0,1-.389-2.365,6.338,6.338,0,0,1,.42-2.324,5.409,5.409,0,0,1,2.976-3.11,5.584,5.584,0,0,1,2.313-.451,5.253,5.253,0,0,1,2.48.545,5,5,0,0,1,1.73,1.459,5.8,5.8,0,0,1,.98,2.1,8.408,8.408,0,0,1,.219,2.48H16.974a3.158,3.158,0,0,0,.74,2.152l-.083.031ZM6.982,19.48a4.387,4.387,0,0,0,.944-.1,2.416,2.416,0,0,0,.8-.313,1.544,1.544,0,0,0,.542-.608,2.136,2.136,0,0,0,.2-1,2.022,2.022,0,0,0-.667-1.688,2.87,2.87,0,0,0-1.761-.5H3.376v4.22H6.982v-.031Zm14.179-5.888a2.294,2.294,0,0,0-1.727-.617,2.584,2.584,0,0,0-1.215.248,2.245,2.245,0,0,0-.771.615,2.169,2.169,0,0,0-.408.782,3.653,3.653,0,0,0-.141.74h4.962a2.977,2.977,0,0,0-.709-1.761v.01ZM6.794,12.952a2.427,2.427,0,0,0,1.485-.429,1.6,1.6,0,0,0,.577-1.394,1.964,1.964,0,0,0-.188-.882,1.523,1.523,0,0,0-.521-.534,2.206,2.206,0,0,0-.75-.268,4.612,4.612,0,0,0-.875-.077H3.366v3.585H6.794Zm9.481-5.167h6.219V9.3H16.275V7.783Z" transform="translate(0 -6.755)" fill="#eee"/>
</svg>
