<svg xmlns="http://www.w3.org/2000/svg" width="25" height="25" viewBox="0 0 25 25">
  <path id="Icon_awesome-codepen" data-name="Icon awesome-codepen" d="M24.526,7.8,13.1.181a1.085,1.085,0,0,0-1.2,0L.474,7.8A1.092,1.092,0,0,0,0,8.691v7.617a1.092,1.092,0,0,0,.474.893L11.9,24.819a1.085,1.085,0,0,0,1.2,0L24.526,17.2A1.092,1.092,0,0,0,25,16.308V8.691a1.092,1.092,0,0,0-.474-.893ZM13.574,3.083l8.412,5.608L18.234,11.2l-4.66-3.111Zm-2.148,0V8.091L6.766,11.2,3.013,8.691ZM2.148,10.7l2.693,1.8L2.148,14.3Zm9.277,11.217L3.013,16.308,6.766,13.8l4.66,3.111ZM12.5,15.039,8.705,12.5,12.5,9.96,16.295,12.5Zm1.074,6.878V16.908l4.66-3.111,3.753,2.511ZM22.852,14.3l-2.693-1.8,2.693-1.8Z" transform="translate(0 0)" fill="#eee"/>
</svg>
