<svg xmlns="http://www.w3.org/2000/svg" width="25" height="25" viewBox="0 0 25 25">
  <path id="Icon_simple-dribbble" data-name="Icon simple-dribbble" d="M12.5,25A12.5,12.5,0,1,1,25,12.5,12.517,12.517,0,0,1,12.5,25ZM23.042,14.21a15.659,15.659,0,0,0-6.65-.456,46.175,46.175,0,0,1,2.075,7.613,10.709,10.709,0,0,0,4.578-7.156Zm-6.37,8.133a44.419,44.419,0,0,0-2.281-8.094l-.069.021c-6.031,2.1-8.188,6.276-8.375,6.667a10.649,10.649,0,0,0,10.719,1.408Zm-12.1-2.687a16.931,16.931,0,0,1,8.679-7.047c.141-.047.281-.088.422-.125-.271-.609-.562-1.216-.867-1.812A39.354,39.354,0,0,1,1.829,12.188l0,.325a10.644,10.644,0,0,0,2.744,7.141ZM2.047,10.328a39.646,39.646,0,0,0,9.872-1.3A68.2,68.2,0,0,0,7.96,2.853a10.7,10.7,0,0,0-5.913,7.469ZM10,2.138a56.971,56.971,0,0,1,3.981,6.25,12.047,12.047,0,0,0,5.6-3.856A10.653,10.653,0,0,0,10,2.134ZM20.766,5.766A14.274,14.274,0,0,1,14.8,9.974c.25.51.49,1.026.708,1.548.083.188.156.375.229.552a25,25,0,0,1,7.437.344,10.567,10.567,0,0,0-2.406-6.646Z" fill="#eee"/>
</svg>
