<svg xmlns="http://www.w3.org/2000/svg" width="25" height="24.381" viewBox="0 0 25 24.381">
  <path id="Icon_simple-github" data-name="Icon simple-github" d="M12.5.445A12.5,12.5,0,0,0,8.547,24.8c.625.118.854-.269.854-.6,0-.3-.01-1.083-.016-2.125-3.477.754-4.21-1.677-4.21-1.677a3.313,3.313,0,0,0-1.391-1.828c-1.132-.775.087-.759.087-.759A2.621,2.621,0,0,1,5.786,19.1a2.664,2.664,0,0,0,3.641,1.04,2.665,2.665,0,0,1,.792-1.672c-2.776-.312-5.694-1.387-5.694-6.177A4.822,4.822,0,0,1,5.811,8.938,4.444,4.444,0,0,1,5.921,5.63s1.047-.335,3.438,1.281a11.785,11.785,0,0,1,6.25,0C17.983,5.294,19.03,5.63,19.03,5.63a4.567,4.567,0,0,1,.125,3.308,4.842,4.842,0,0,1,1.281,3.354c0,4.8-2.922,5.859-5.7,6.167a2.993,2.993,0,0,1,.844,2.313c0,1.673-.016,3.017-.016,3.423,0,.328.219.719.859.594A12.485,12.485,0,0,0,12.5.445" transform="translate(0 -0.445)" fill="#eee"/>
</svg>
